<svg xmlns="http://www.w3.org/2000/svg" version="1.1" xmlns:xlink="http://www.w3.org/1999/xlink" xmlns:svgjs="http://svgjs.com/svgjs" width="64" height="64"><svg version="1.1" id="SvgjsSvg1000" xmlns="http://www.w3.org/2000/svg" xmlns:xlink="http://www.w3.org/1999/xlink" x="0px" y="0px" viewBox="0 0 64 64" style="enable-background:new 0 0 64 64;" xml:space="preserve">
<style type="text/css">
	.st0{fill:#222222;}
	.st1{fill:#E5D900;}
	.st2{opacity:0.3;}
	.st3{fill:#0083C7;}
	.st4{fill:#FCFCFA;}
</style>
<path class="st0" d="M53.2,49.9L62,60.8l-13.3-4.3L53.2,49.9z"></path>
<path class="st1" d="M51.5,30.7l-0.2,2.6l1.9-1.8L52.6,34l2.1-1.6l-0.8,2.5l2.2-1.4l-1.1,2.4l2.4-1L56,37l2.5-0.7l-1.7,1.9l2.6-0.3
	l-2,1.7l2.6,0.1l-2.2,1.4l2.6,0.5L58,42.6l2.5,0.8L58,44.2l2.4,1.1l-2.6,0.5l2.2,1.4l-2.6,0.2l2.1,1.6L56.8,49l1.9,1.9L56,50.5
	l1.6,2.1l-2.6-0.7l1.4,2.2L54,53.2l1.2,2.3l-2.4-1.1l0.9,2.4l-2.3-1.4l0.7,2.5l-2.1-1.6l0.5,2.6l-2-1.7l0.3,2.6L47,58l0,2.6l-1.7-2
	l-0.2,2.6l-1.5-2.2l-0.4,2.6L42,59.4l-0.6,2.5l-1.1-2.4l-0.8,2.5l-1-2.4l-1,2.4l-0.8-2.5l-1.1,2.4l-0.6-2.6l-1.3,2.3l-0.4-2.6
	l-1.5,2.2l-0.2-2.6l-1.7,2l0-2.6l-1.8,1.9l0.3-2.6l-2,1.7l0.5-2.6L24.8,58l0.7-2.5l-2.3,1.4l0.9-2.4l-2.4,1.1l1.2-2.3l-2.5,0.9
	l1.4-2.2l-2.6,0.7L51.5,30.7z"></path>
<path class="st0" d="M10.5,39.6l36.6-11.9l-0.5,2.5l2.1-1.6l-0.8,2.5l2.2-1.4l-1.1,2.4l2.4-1L50,33.3l2.5-0.7l-1.7,1.9l2.6-0.3
	l-2,1.7L54,36l-2.2,1.3l2.6,0.5L52,38.9l2.5,0.8L52,40.5l2.4,1.1l-2.6,0.5l2.2,1.4l-2.6,0.2l2.1,1.6l-2.6-0.1l1.9,1.9L50,46.8
	l1.6,2.1l-2.6-0.7l1.4,2.2L48,49.5l1.2,2.3l-2.4-1.1l0.9,2.4l-2.3-1.4l0.7,2.5l-2.1-1.6l0.5,2.6l-2-1.7l0.3,2.6L41,54.3l0,2.6
	l-1.7-2l-0.2,2.6l-1.5-2.2l-0.4,2.6L36,55.7l-0.6,2.6l-1.1-2.4l-0.8,2.5l-1-2.4l-1,2.4l-0.8-2.5l-1.2,2.4l-0.6-2.6l-1.3,2.3
	l-0.4-2.6l-1.5,2.2l-0.2-2.6l-1.7,2l0-2.6l-1.8,1.9l0.3-2.6l-2,1.7l0.5-2.6l-2.1,1.6l0.7-2.5l-2.3,1.4l0.9-2.4l-2.4,1.1l1.2-2.3
	l-2.5,0.9l1.4-2.2l-2.6,0.7l1.6-2.1l-2.6,0.4l1.9-1.9l-2.6,0.1l2.1-1.6L11,43.5l2.2-1.4l-2.6-0.5l2.4-1.1L10.5,39.6z"></path>
<g class="st2">
	<path class="st3" d="M60,4.3c-3.6-4.5-10.2-2.3-14.8,5c-4.6,7.3-8,20-8,20s15.5,2.6,20.1-4.7C62,17.3,63.7,8.8,60,4.3"></path>
	<path class="st3" d="M3.9,8.9C0.4,13.2,2,21.3,6.5,28.2c4.5,6.9,19.8,4.3,19.8,4.3s-3.3-12.1-7.8-19C14,6.6,7.5,4.5,3.9,8.9"></path>
</g>
<path class="st1" d="M33.6,25.2l1-1.8l0.3,2l1.1-1.7l0.2,2l1.2-1.7l0.1,2l1.3-1.6l-0.1,2l1.4-1.5l-0.3,2l1.6-1.3l-0.5,2l1.7-1.1
	l-0.7,1.9l1.9-0.9l-1,1.8l2-0.7l-1.2,1.6l2-0.4l-1.5,1.5l2.1-0.1l-1.6,1.2l2.1,0.2l-1.8,1l2,0.4l-1.9,0.8l2,0.6l-2,0.7l1.9,0.9
	l-2,0.5l1.8,1.1l-2.1,0.3l1.7,1.3L44,40.5l1.5,1.4l-2.1-0.2l1.4,1.6L42.8,43l1.2,1.7l-2-0.6l1,1.8l-2-0.8l0.9,1.9L40,46.1l0.7,2
	L38.9,47l0.5,2l-1.7-1.3l0.3,2l-1.5-1.4l0.1,2.1l-1.4-1.5L35.1,51l-1.3-1.7l-0.3,2l-1.1-1.8l-0.5,2l-1-1.8l-0.6,2l-0.8-1.9l-0.8,1.9
	l-0.6-2l-1,1.8l-0.5-2l-1.1,1.8l-0.3-2L24.1,51L24,48.9l-1.4,1.5l0.1-2.1l-1.5,1.4l0.3-2L19.8,49l0.5-2l-1.8,1.1l0.7-2l-1.9,0.9
	l0.9-1.9l-2,0.7l1-1.8l-2,0.6L33.6,25.2z"></path>
<path class="st0" d="M9.9,33.1l1.7-0.6l-1.7-0.8l1.8-0.4l-1.6-0.9l1.8-0.3L10.4,29l1.9,0L11,27.7l1.8,0.2l-1.1-1.4l1.8,0.5l-0.9-1.6
	l1.7,0.7l-0.7-1.7l1.6,0.9l-0.5-1.8l1.5,1.1l-0.3-1.8l1.3,1.2l-0.2-1.8l1.2,1.4l0-1.8l1.1,1.5l0.1-1.8l1,1.5l0.3-1.8l0.9,1.6
	l0.4-1.8l0.8,1.7l0.5-1.8l0.7,1.7l0.6-1.8l0.6,1.7l0.6-1.7l0.6,1.8l0.7-1.7l0.5,1.8l0.8-1.7l0.4,1.8l0.9-1.6l0.3,1.8l1-1.5l0.1,1.8
	l1.1-1.5v1.7l1.2-1.4L33.1,24l1.3-1.3l-0.3,1.9l1.4-1.1L35,25.2l1.6-0.9L35.8,26l1.7-0.7l-0.9,1.6l1.7-0.5l-1.1,1.5l1.8-0.2L37.6,29
	l1.8,0l-1.5,1.1l1.8,0.2l-1.6,0.9l1.7,0.4l-1.6,0.8l1.7,0.6l-1.7,0.7l1.6,0.8l-1.7,0.5l1.5,1l-1.8,0.3l1.5,1.1l-1.8,0.2l1.4,1.3
	l-1.8,0l1.2,1.4l-1.8-0.2l1.1,1.5l-1.8-0.4l1,1.6l-1.7-0.6l0.8,1.7l-1.7-0.7l0.7,1.8l-1.6-0.9l0.5,1.8L32.2,45l0.3,1.9l-1.4-1.2
	l0.2,1.9L30,46.3l0,2l-1.2-1.5l-0.2,1.9l-1-1.6L27.2,49l-0.9-1.7l-0.6,1.8L25,47.4l-0.7,1.8l-0.6-1.8L22.8,49l-0.4-1.9l-1,1.6
	l-0.2-1.9L20,48.2l0-1.9l-1.3,1.3l0.2-1.9L17.4,47l0.3-1.9l-1.5,1.1l0.5-1.8L15,45.2l0.7-1.8L14,44.1l0.8-1.7L13.1,43l1-1.6
	l-1.8,0.4l1.1-1.5l-1.8,0.2l1.3-1.4l-1.8,0l1.4-1.3l-1.8-0.2l1.5-1.1l-1.8-0.3l1.6-1l-1.8-0.5l1.7-0.8L9.9,33.1z"></path>
<g>
	<ellipse class="st4" cx="17.4" cy="32.5" rx="5.4" ry="5.4"></ellipse>
	<ellipse transform="matrix(0.9063 -0.4226 0.4226 0.9063 -11.4305 14.6633)" class="st4" cx="27.4" cy="33.1" rx="5.4" ry="5.4"></ellipse>
</g>
<path class="st0" d="M36.3,16.9c-5.5-0.1-8.7,1.9-10.3,6c-0.2,0.6,0.7,0.8,1,0.3c1.3-2.6,3.5-5.6,9.3-5.3c0,0,0,0,0,0
	C37,17.9,37,16.9,36.3,16.9"></path>
<path class="st0" d="M17.8,24.3c-3.8-3.9-7.5-4.8-11.6-2.9c-0.6,0.3-0.1,1.1,0.5,0.9c2.8-0.9,6.4-1.5,10.3,2.8c0,0,0,0,0,0
	C17.6,25.4,18.3,24.7,17.8,24.3"></path>
<ellipse class="st0" cx="18.5" cy="33" rx="3.1" ry="3.1"></ellipse>
<ellipse transform="matrix(0.9063 -0.4226 0.4226 0.9063 -11.4954 14.2014)" class="st0" cx="26.3" cy="33" rx="3.3" ry="3.2"></ellipse>
</svg><style>@media (prefers-color-scheme: light) { :root { filter: none; } }
</style></svg>