<svg xmlns="http://www.w3.org/2000/svg" viewBox="0 0 73.84 61.76"><defs><style>.cls-1{fill:#222;}.cls-2{fill:#e5d900;}.cls-3{opacity:0.3;}.cls-4{fill:#0083c7;}.cls-5{fill:#fcfcfa;}</style></defs><g id="Layer_2" data-name="Layer 2"><g id="Bee_right"><g id="Layer_2-2" data-name="Layer 2"><g id="Layer_1-2" data-name="Layer 1-2"><path class="cls-1" d="M16.51,42.33,0,58.17l22.49-4.3Z"/><path class="cls-2" d="M20.45,28.57l.06,2.68-1.83-2,.46,2.59L17,30l.73,2.67-2.18-1.56.9,2.57-2.44-1.19,1.31,2.25-2.53-.93,1.66,2.07-2.65-.53,2,1.88-2.73,0,2.18,1.56-2.77.33L13,40.32,10.39,41,13,42l-2.53,1,2.61.66L10.71,45l2.51.48L11,47l2.82.21-2.06,1.88,2.81-.24-1.74,2,2.62-.6-1.56,2.18,2.53-.77L15,54.05l2.53-1-1.11,2.39,2.48-1.3L18,56.67l2.25-1.52-.75,2.65,2.2-1.61-.52,2.65,2-1.75L23,59.78l1.88-2L25,60.45l1.7-2.14L26.85,61l1.43-2.23.46,2.59L30.07,59l.6,2.62,1.2-2.44.9,2.58,1-2.58,1,2.53.74-2.65,1.18,2.43.66-2.39,1.39,2.43.39-2.69L40.77,61l.16-2.69,1.79,2.11-.19-2.72,2,1.88-.33-2.77,2.09,1.83-.59-2.62L48,57.66,47.21,55l2.4,1.33-1.09-2.48L51,55l-1.4-2.42,2.62.88Z"/><path class="cls-1" d="M59.84,40.07,25.46,26.44l.37,2.45-1.9-1.64.6,2.44-2-1.46.92,2.39-2.21-1.13,1.19,2.24L20,30.92l1.5,2L19,32.49l1.86,1.77-2.55,0,2,1.36-2.58.33L20,37.14l-2.44.6,2.34.95-2.39.91,2.51.63L17.81,41.5l2.45.31-2.1,1.45,2.54,0L18.75,45l2.76-.43-1.64,1.9,2.53-.42L21,48.1l2.39-.69-1.27,2.16,2.38-.91-1,2.24,2.33-1.23L25,52.05l2-1.41-.62,2.51,2.05-1.54-.4,2.5,1.87-1.67-.17,2.5,1.78-1.86.05,2.5,1.59-2,.19,2.54,1.32-2.07.42,2.53,1.22-2.25.6,2.44L38,54.57l.78,2.35.72-2.33,1,2.33.76-2.46,1.1,2.29.53-2.47,1.28,2.2.4-2.51L46.13,56l.17-2.5,1.59,1.91-.2-2.53,1.86,1.77-.33-2.58L51,53.79l-.5-2.49,2.16,1.5L52,50.41l2.25,1.22-1-2.34,2.38,1-1.27-2.19,2.51.85L55.5,46.83l2.46.54-1.72-2,2.55.26L56.89,44l2.44-.37-2-1.45,2.49-.28-2.25-1.22Z"/><g class="cls-3"><path class="cls-4" d="M13.88,2.22C26.15-9,35.11,26,35,28.59c0,0-15.67,1.6-19.77-6S9.9,6.47,13.88,2.22"/><path class="cls-4" d="M69.61,10.33c3.19,4.53,1.18,12.5-3.82,19.09s-20,3.09-20,3.09c.33-3,13.23-34.47,23.79-22.18"/></g><path class="cls-2" d="M39.81,25.68,39,23.86l-.45,1.94-1-1.73-.32,2-1-1.72-.22,1.93-1.2-1.63v1.92L33.44,25l.13,2-1.51-1.36.36,2-1.64-1.17.58,2-1.76-1,.84,1.81-1.89-.81L29.66,30l-2-.54L29.05,31,27,30.75,28.45,32l-2.1.1,1.72,1.12-2,.27,1.81.85-2,.5,1.9.8-1.95.81,1.89.58-1.86,1,2.25.4-1.76,1.16,2.24.39L27,41.26h2.15l-1.49,1.46,2-.13-1.3,1.59,2-.49-1.13,1.73,2.09-.76-1,1.76,2-.8-.81,1.89,1.86-1-.58,1.9,1.76-1.16L34,49.2l1.58-1.29L35.34,50l1.44-1.33,0,2.06,1.39-1.64.14,2,1.17-1.64.35,2,1.13-1.72.49,2,.86-1.81.66,1.91.68-1.94.84,1.82L45,49.72l1,1.85.45-1.93,1,1.72.27-1.84,1.29,1.58,0-2.05,1.33,1.44-.18-2.05,1.64,1.39-.35-2L53.16,49l-.58-1.95,1.77,1-.8-1.95,1.89.81-.84-1.82,1.93.67Z"/><path class="cls-1" d="M63.33,34.22l-1.85-.72,1.86-.76-2-.53,1.81-.85-1.93-.45,1.68-1.11L61,29.66l1.54-1.37-2,.13L61.87,27l-2,.4L61,25.64,59,26.31l.85-1.81-1.81.85.67-1.94-1.68,1.11.45-1.94L56,23.83l.31-2-1.4,1.42.09-2-1.3,1.59V21l-1.22,1.55-.27-2-1.12,1.72-.27-2-1,1.76-.4-2-.86,1.8-.49-2-.77,1.76-.53-1.86L46,21.54l-.67-1.91-.67,1.94-.76-1.86-.53,2-.85-1.81-.45,1.93-1-1.72L40.82,22l-1.11-1.68-.09,1.75-1.11-1.68.22,2.14-1.24-1.49.23,2.14-1.37-1.31.36,2L35.2,22.72l.67,1.91-1.63-.95L35,25.55l-1.72-.68,1,1.72-1.76-.32,1.29,1.58-1.74-.09,1.37,1.31-1.75.13,1.51,1.13-1.74.35,1.54,1-1.73.58,1.63,1L31.29,34l1.67.59-1.5,1,1.8.41-1.54,1.15,1.75.32L32,38.76l1.74.1-1.26,1.46,1.74-.13-1.17,1.64L35,41.52l-1.12,1.72,1.73-.57-1,1.85,1.78-.71-.81,1.9,1.68-.89-.63,2L38.31,46l-.4,2,1.5-1.24-.36,2.11,1.31-1.37-.09,1.75,1.44-1.56.09,2.1L43,48.14l.32,2.09,1.07-1.81.5,2,.9-1.72.62,2,.81-1.89.94,1.77.53-2,1,1.85L50,48.38,51.2,50l.13-2.1,1.38,1.53-.09-2.1,1.59,1.53-.17-2,1.59,1.3-.49-2,1.76,1-.62-2,1.81.85-.76-1.86,1.85.72-1-1.86,2,.54-1.11-1.68,2,.32-1.29-1.58,2,.09-1.47-1.49L62.14,39l-1.6-1.3,2-.27L60.87,36.2l2.05-.41-1.77-1Z"/><path class="cls-5" d="M55,27.65c-6.94-.52-7.68,10.5-.65,10.75C61.3,38.92,62,27.94,55,27.65Z"/><path class="cls-5" d="M47.29,28.22c-6.12-3.44-11.4,6.25-5.16,9.51C48.2,41.09,53.44,31.53,47.29,28.22Z"/><path class="cls-1" d="M53.45,25.76c4.16-12.26,25.07-13.35,19.44-9-5.6-.32-12.47.37-17.54,10.05h0c-1,.88-2.64-.07-1.9-1"/><path class="cls-1" d="M53.73,30.36c-4-.27-4.38,6-.35,6.18S57.76,30.5,53.73,30.36Z"/><path class="cls-1" d="M47.29,30.15c-3.72-2.11-6.81,3.59-3.06,5.57S51.13,32.08,47.29,30.15Z"/><path class="cls-1" d="M45.71,23.52C46.45,10.57,66.39,4,62,9.69c-5.48,1.2-11.91,3.58-14.22,14.41h0c-.69,1-2.54.55-2.11-.58"/></g></g></g></g></svg>