<svg xmlns="http://www.w3.org/2000/svg" viewBox="0 0 73.84 61.76"><defs><style>.cls-1{fill:#222;}.cls-2{fill:#e5d900;}.cls-3{opacity:0.3;}.cls-4{fill:#0083c7;}.cls-5{fill:#fcfcfa;}</style></defs><g id="Layer_2" data-name="Layer 2"><g id="Bee_left"><g id="Layer_2-2" data-name="Layer 2"><g id="Layer_1-2" data-name="Layer 1-2"><path class="cls-1" d="M57.33,42.33,73.84,58.17l-22.49-4.3Z"/><path class="cls-2" d="M53.39,28.57l-.06,2.68,1.84-2-.46,2.59L56.8,30l-.73,2.67,2.19-1.56-.91,2.57,2.44-1.19-1.3,2.25L61,33.84l-1.65,2.07L62,35.38l-2,1.88,2.73,0-2.18,1.56,2.76.33-2.44,1.2,2.58.69-2.57,1,2.52,1-2.61.66L63.14,45l-2.52.48L62.87,47,60,47.24l2.06,1.88-2.81-.24,1.75,2-2.63-.6L60,52.51l-2.53-.77,1.38,2.31-2.53-1,1.11,2.39-2.47-1.3.92,2.52-2.24-1.52.74,2.65-2.2-1.61.52,2.65-2-1.75.16,2.69-1.88-2-.06,2.68-1.7-2.14L47,61l-1.43-2.23L45.1,61.4,43.77,59l-.6,2.62L42,59.18l-.91,2.58-1-2.58-1,2.53-.75-2.65-1.17,2.43-.67-2.39-1.39,2.43-.39-2.69L33.08,61l-.17-2.69-1.79,2.11.2-2.72-2,1.88.33-2.77-2.1,1.83.59-2.62-2.31,1.6L26.63,55l-2.4,1.33,1.09-2.48L22.83,55l1.4-2.42-2.61.88Z"/><path class="cls-1" d="M14,40.07,48.38,26.44,48,28.89l1.9-1.64-.6,2.44,2-1.46-.92,2.39,2.21-1.13-1.19,2.24,2.38-.81-1.49,2,2.5-.4L53,34.26l2.54,0-2,1.36,2.58.33-2.26,1.22,2.44.6L54,38.69l2.38.91-2.51.63L56,41.5l-2.46.31,2.1,1.45-2.54,0,2,1.72-2.76-.43L54,46.49l-2.53-.42,1.46,2-2.39-.69,1.26,2.16-2.38-.91,1,2.24-2.33-1.23.81,2.38-2-1.41.62,2.51-2-1.54.4,2.5L44,52.44l.17,2.5-1.77-1.86-.06,2.5-1.59-2-.19,2.54-1.32-2.07-.42,2.53-1.22-2.25L37,56.78l-1.14-2.21-.77,2.35-.72-2.33-1,2.33-.76-2.46-1.09,2.29-.54-2.47-1.27,2.2L29.26,54,27.71,56l-.17-2.5L26,55.44l.19-2.53L24.3,54.68l.33-2.58-1.81,1.69.51-2.49-2.17,1.5.69-2.39L19.6,51.63l1-2.34-2.38,1,1.27-2.19L17,49l1.36-2.15-2.46.54,1.72-2-2.54.26L17,44l-2.44-.37,2-1.45-2.49-.28,2.25-1.22Z"/><g class="cls-3"><path class="cls-4" d="M60,2.22C47.69-9,38.73,26,38.8,28.59c0,0,15.67,1.6,19.77-6S63.94,6.47,60,2.22"/><path class="cls-4" d="M4.23,10.33C1,14.86,3.06,22.83,8.05,29.42s20,3.09,20,3.09C27.69,29.5,14.79-2,4.23,10.33"/></g><path class="cls-2" d="M34,25.68l.84-1.82.45,1.94,1-1.73.32,2,1-1.72.23,1.93,1.2-1.63v1.92L40.41,25l-.14,2,1.51-1.36-.36,2,1.64-1.17-.58,2,1.76-1-.84,1.81,1.9-.81L44.18,30l2-.54L44.79,31l2.06-.27L45.39,32l2.1.1-1.72,1.12,2,.27L46,34.35l2,.5-1.9.8,2,.81L46.13,37,48,38l-2.25.4,1.77,1.16L45.26,40l1.58,1.29H44.7l1.48,1.46-2-.13,1.31,1.59-2-.49,1.13,1.73-2.09-.76,1,1.76-1.95-.8.81,1.89-1.86-1,.59,1.9-1.77-1.16.45,1.93-1.58-1.29L38.51,50l-1.45-1.33,0,2.06-1.39-1.64-.13,2-1.17-1.64-.36,2-1.13-1.72-.49,2-.85-1.81-.67,1.91-.67-1.94-.85,1.82-.58-1.89-1,1.85-.45-1.93-1,1.72-.27-1.84L24.79,51.1l0-2.05-1.33,1.44.18-2.05L22,49.83l.36-2L20.68,49l.58-1.95-1.77,1,.81-1.95-1.9.81.85-1.82-1.94.67Z"/><path class="cls-1" d="M10.52,34.22l1.85-.72-1.87-.76,2-.53-1.81-.85,1.93-.45L10.93,29.8l1.88-.14-1.54-1.37,2,.13L12,27l2,.4L12.9,25.64l1.91.67L14,24.5l1.82.85-.68-1.94,1.68,1.11-.45-1.94,1.49,1.25-.31-2,1.4,1.42-.09-2,1.31,1.59V21l1.22,1.55.27-2,1.13,1.72.26-2L24,22l.41-2,.85,1.8.49-2,.77,1.76L27,19.65l.81,1.89.67-1.91.67,1.94.76-1.86.54,2,.84-1.81.45,1.93,1-1.72L33,22l1.11-1.68.09,1.75,1.12-1.68-.23,2.14,1.24-1.49-.23,2.14,1.37-1.31-.35,2,1.5-1.13L38,24.63l1.63-.95-.76,1.87,1.72-.68-1,1.72,1.75-.32L40,27.85l1.75-.09-1.37,1.31,1.74.13-1.5,1.13,1.73.35-1.54,1,1.73.58-1.63,1,1.64.75-1.67.59,1.5,1-1.8.41,1.54,1.15-1.75.32,1.45,1.33-1.75.1,1.26,1.46-1.74-.13,1.17,1.64-1.87-.31L40,43.24l-1.73-.57.94,1.85-1.78-.71.81,1.9-1.68-.89.63,2L35.53,46l.4,2-1.49-1.24.35,2.11-1.31-1.37.1,1.75-1.45-1.56L32,49.77l-1.17-1.63-.31,2.09-1.08-1.81-.49,2-.9-1.72-.63,2-.81-1.89-.93,1.77-.54-2-1,1.85-.36-2.11L22.64,50l-.13-2.1-1.37,1.53.09-2.1-1.6,1.53.18-2-1.6,1.3.49-2-1.76,1,.63-2-1.81.85.75-1.86-1.85.72,1-1.86-2,.54,1.12-1.68-2,.32,1.29-1.58-2,.09,1.46-1.49L11.71,39l1.59-1.3-2-.27L13,36.2l-2.05-.41,1.76-1Z"/><path class="cls-5" d="M18.83,27.65c6.94-.52,7.68,10.5.66,10.75C12.54,38.92,11.89,27.94,18.83,27.65Z"/><path class="cls-5" d="M26.56,28.22c6.11-3.44,11.4,6.25,5.15,9.51C25.64,41.09,20.4,31.53,26.56,28.22Z"/><path class="cls-1" d="M20.39,25.76C16.24,13.5-4.67,12.41,1,16.74c5.59-.32,12.47.37,17.53,10.05h0c1,.88,2.64-.07,1.9-1"/><path class="cls-1" d="M20.11,30.36c4-.27,4.38,6,.36,6.18S16.08,30.5,20.11,30.36Z"/><path class="cls-1" d="M26.56,30.15c3.71-2.11,6.81,3.59,3.05,5.57S22.71,32.08,26.56,30.15Z"/><path class="cls-1" d="M28.14,23.52C27.4,10.57,7.46,4,11.8,9.69,17.28,10.89,23.71,13.27,26,24.1h0c.69,1,2.54.55,2.12-.58"/></g></g></g></g></svg>